<?xml version="1.0" encoding="UTF-8" standalone="no"?>
<svg width="12px" height="14px" viewBox="0 0 12 14" version="1.1" xmlns="http://www.w3.org/2000/svg" xmlns:xlink="http://www.w3.org/1999/xlink" xmlns:sketch="http://www.bohemiancoding.com/sketch/ns">
    <!-- Generator: sketchtool 3.4 (375) - http://www.bohemiancoding.com/sketch -->
    <title>lock</title>
    <desc>Created with sketchtool.</desc>
    <defs></defs>
    <g id="Page-1" stroke="none" stroke-width="1" fill="none" fill-rule="evenodd" sketch:type="MSPage">
        <g id="guest-user-locale-bottom" sketch:type="MSArtboardGroup" transform="translate(-264.000000, -502.000000)" fill="#FFFFFF">
            <g id="login-button" sketch:type="MSLayerGroup" transform="translate(224.000000, 495.000000)">
                <g id="lock" transform="translate(40.000000, 7.000000)" sketch:type="MSShapeGroup">
                    <rect id="Rectangle-57" x="0" y="6" width="12" height="8"></rect>
                    <path d="M11,5 C11,2.23857625 8.76142375,0 6,0 C3.23857625,0 1,2.23857625 1,5 L3,5 C3,3.34314575 4.34314575,2 6,2 C7.65685425,2 9,3.34314575 9,5 L11,5 Z M9,5 L9,10 L11,10 L11,5 L9,5 Z M1,5 L1,10 L3,10 L3,5 L1,5 Z" id="Oval-1"></path>
                </g>
            </g>
        </g>
    </g>
</svg>